<?xml version="1.0" encoding="UTF-8"?>
<svg id="Layer_1" data-name="Layer 1" xmlns="http://www.w3.org/2000/svg" viewBox="0 0 322.45 151.52">
  <defs>
    <style>
      .cls-1 {
        stroke-width: 4px;
      }

      .cls-1, .cls-2, .cls-3 {
        stroke: #fff;
      }

      .cls-1, .cls-3 {
        stroke-miterlimit: 10;
      }

      .cls-2 {
        stroke-linecap: round;
        stroke-linejoin: round;
        stroke-width: 6px;
      }
    </style>
  </defs>
  <path class="cls-2" d="m282.4,102.08c-43.38,43.38-94.92,46.44-118.4,46.44s-78.85-6.89-118.4-46.44"/>
  <path class="cls-2" d="m282.4,102.08c-52.56-52.56-91.86-52.05-115.33-52.05s-70.83,1.42-121.46,52.05"/>
  <circle class="cls-1" cx="165.28" cy="99.27" r="49.25"/>
  <circle class="cls-3" cx="165.28" cy="99.27" r="29.34"/>
  <circle class="cls-3" cx="165.28" cy="99.27" r="11.65"/>
  <line class="cls-3" x1="51.32" y1="96.57" x2=".19" y2="76.05"/>
  <line class="cls-3" x1="72.09" y1="79.55" x2="35.4" y2="37.78"/>
  <line class="cls-3" x1="97.48" y1="64.57" x2="79.29" y2="16.86"/>
  <line class="cls-3" x1="130.77" y1="53.33" x2="119.09" y2="7.16"/>
  <line class="cls-3" x1="171.15" y1="50.03" x2="172.68" y2=".02"/>
  <line class="cls-3" x1="209.39" y1="54.96" x2="217.08" y2="12.26"/>
  <line class="cls-3" x1="236.6" y1="66.45" x2="263.52" y2="25.02"/>
  <line class="cls-3" x1="263.52" y1="83.25" x2="298.73" y2="42.5"/>
  <line class="cls-3" x1="277.5" y1="97.3" x2="322.2" y2="72.48"/>
</svg>